# Blender v2.83.5 OBJ File: 'WindowFrame.blend'
# www.blender.org
mtllib WindowFrame.mtl
o FrameTop_FrameTop3
v -0.025000 -0.400000 1.050000
v -0.025000 -0.400000 1.100000
v -0.025000 0.400000 1.050000
v -0.025000 0.400000 1.050000
v -0.025000 -0.400000 1.100000
v -0.025000 0.400000 1.100000
v 0.025000 -0.400000 1.050000
v 0.025000 -0.400000 1.100000
v -0.025000 -0.400000 1.050000
v -0.025000 -0.400000 1.050000
v 0.025000 -0.400000 1.100000
v -0.025000 -0.400000 1.100000
v 0.025000 -0.400000 1.100000
v 0.025000 0.400000 1.100000
v -0.025000 -0.400000 1.100000
v -0.025000 -0.400000 1.100000
v 0.025000 0.400000 1.100000
v -0.025000 0.400000 1.100000
v 0.025000 0.400000 1.100000
v 0.025000 0.400000 1.050000
v -0.025000 0.400000 1.100000
v -0.025000 0.400000 1.100000
v 0.025000 0.400000 1.050000
v -0.025000 0.400000 1.050000
v 0.025000 0.400000 1.050000
v 0.025000 -0.400000 1.050000
v -0.025000 0.400000 1.050000
v -0.025000 0.400000 1.050000
v 0.025000 -0.400000 1.050000
v -0.025000 -0.400000 1.050000
v 0.025000 0.400000 1.050000
v 0.025000 0.400000 1.100000
v 0.025000 -0.400000 1.050000
v 0.025000 -0.400000 1.050000
v 0.025000 0.400000 1.100000
v 0.025000 -0.400000 1.100000
vn -1.0000 0.0000 0.0000
vn 0.0000 -1.0000 0.0000
vn 0.0000 0.0000 1.0000
vn 0.0000 1.0000 0.0000
vn 0.0000 0.0000 -1.0000
vn 1.0000 0.0000 0.0000
usemtl FrameMat
s off
f 1//1 2//1 3//1
f 4//1 5//1 6//1
f 7//2 8//2 9//2
f 10//2 11//2 12//2
f 13//3 14//3 15//3
f 16//3 17//3 18//3
f 19//4 20//4 21//4
f 22//4 23//4 24//4
f 25//5 26//5 27//5
f 28//5 29//5 30//5
f 31//6 32//6 33//6
f 34//6 35//6 36//6
o FrameRight_FrameRight4
v -0.025000 0.400000 0.000000
v -0.025000 0.400000 1.100000
v -0.025000 0.450000 0.000000
v -0.025000 0.450000 0.000000
v -0.025000 0.400000 1.100000
v -0.025000 0.450000 1.100000
v 0.025000 0.400000 1.100000
v 0.025000 0.450000 1.100000
v -0.025000 0.400000 1.100000
v -0.025000 0.400000 1.100000
v 0.025000 0.450000 1.100000
v -0.025000 0.450000 1.100000
v 0.025000 0.450000 1.100000
v 0.025000 0.450000 0.000000
v -0.025000 0.450000 1.100000
v -0.025000 0.450000 1.100000
v 0.025000 0.450000 0.000000
v -0.025000 0.450000 0.000000
v 0.025000 0.450000 0.000000
v 0.025000 0.400000 0.000000
v -0.025000 0.450000 0.000000
v -0.025000 0.450000 0.000000
v 0.025000 0.400000 0.000000
v -0.025000 0.400000 0.000000
v 0.025000 0.400000 0.000000
v 0.025000 0.400000 1.100000
v -0.025000 0.400000 0.000000
v -0.025000 0.400000 0.000000
v 0.025000 0.400000 1.100000
v -0.025000 0.400000 1.100000
v 0.025000 0.400000 1.100000
v 0.025000 0.400000 0.000000
v 0.025000 0.450000 1.100000
v 0.025000 0.450000 1.100000
v 0.025000 0.400000 0.000000
v 0.025000 0.450000 0.000000
vn -1.0000 0.0000 0.0000
vn 0.0000 0.0000 1.0000
vn 0.0000 1.0000 0.0000
vn 0.0000 0.0000 -1.0000
vn 0.0000 -1.0000 0.0000
vn 1.0000 0.0000 0.0000
usemtl FrameMat
s off
f 37//7 38//7 39//7
f 40//7 41//7 42//7
f 43//8 44//8 45//8
f 46//8 47//8 48//8
f 49//9 50//9 51//9
f 52//9 53//9 54//9
f 55//10 56//10 57//10
f 58//10 59//10 60//10
f 61//11 62//11 63//11
f 64//11 65//11 66//11
f 67//12 68//12 69//12
f 70//12 71//12 72//12
o FrameLeft_FrameLeft5
v -0.025000 -0.400000 1.100000
v -0.025000 -0.400000 0.000000
v -0.025000 -0.450000 1.100000
v -0.025000 -0.450000 1.100000
v -0.025000 -0.400000 0.000000
v -0.025000 -0.450000 0.000000
v 0.025000 -0.400000 0.000000
v 0.025000 -0.450000 0.000000
v -0.025000 -0.400000 0.000000
v -0.025000 -0.400000 0.000000
v 0.025000 -0.450000 0.000000
v -0.025000 -0.450000 0.000000
v 0.025000 -0.450000 0.000000
v 0.025000 -0.450000 1.100000
v -0.025000 -0.450000 0.000000
v -0.025000 -0.450000 0.000000
v 0.025000 -0.450000 1.100000
v -0.025000 -0.450000 1.100000
v 0.025000 -0.450000 1.100000
v 0.025000 -0.400000 1.100000
v -0.025000 -0.450000 1.100000
v -0.025000 -0.450000 1.100000
v 0.025000 -0.400000 1.100000
v -0.025000 -0.400000 1.100000
v 0.025000 -0.400000 1.100000
v 0.025000 -0.400000 0.000000
v -0.025000 -0.400000 1.100000
v -0.025000 -0.400000 1.100000
v 0.025000 -0.400000 0.000000
v -0.025000 -0.400000 0.000000
v 0.025000 -0.400000 0.000000
v 0.025000 -0.400000 1.100000
v 0.025000 -0.450000 0.000000
v 0.025000 -0.450000 0.000000
v 0.025000 -0.400000 1.100000
v 0.025000 -0.450000 1.100000
vn -1.0000 0.0000 0.0000
vn 0.0000 0.0000 -1.0000
vn 0.0000 -1.0000 0.0000
vn 0.0000 0.0000 1.0000
vn 0.0000 1.0000 0.0000
vn 1.0000 0.0000 0.0000
usemtl FrameMat
s off
f 73//13 74//13 75//13
f 76//13 77//13 78//13
f 79//14 80//14 81//14
f 82//14 83//14 84//14
f 85//15 86//15 87//15
f 88//15 89//15 90//15
f 91//16 92//16 93//16
f 94//16 95//16 96//16
f 97//17 98//17 99//17
f 100//17 101//17 102//17
f 103//18 104//18 105//18
f 106//18 107//18 108//18
o FrameBot_FrameTop3.001
v -0.025000 -0.400000 0.000046
v -0.025000 -0.400000 0.050046
v -0.025000 0.400000 0.000046
v -0.025000 0.400000 0.000046
v -0.025000 -0.400000 0.050046
v -0.025000 0.400000 0.050046
v 0.025000 -0.400000 0.000046
v 0.025000 -0.400000 0.050046
v -0.025000 -0.400000 0.000046
v -0.025000 -0.400000 0.000046
v 0.025000 -0.400000 0.050046
v -0.025000 -0.400000 0.050046
v 0.025000 -0.400000 0.050046
v 0.025000 0.400000 0.050046
v -0.025000 -0.400000 0.050046
v -0.025000 -0.400000 0.050046
v 0.025000 0.400000 0.050046
v -0.025000 0.400000 0.050046
v 0.025000 0.400000 0.050046
v 0.025000 0.400000 0.000046
v -0.025000 0.400000 0.050046
v -0.025000 0.400000 0.050046
v 0.025000 0.400000 0.000046
v -0.025000 0.400000 0.000046
v 0.025000 0.400000 0.000046
v 0.025000 -0.400000 0.000046
v -0.025000 0.400000 0.000046
v -0.025000 0.400000 0.000046
v 0.025000 -0.400000 0.000046
v -0.025000 -0.400000 0.000046
v 0.025000 0.400000 0.000046
v 0.025000 0.400000 0.050046
v 0.025000 -0.400000 0.000046
v 0.025000 -0.400000 0.000046
v 0.025000 0.400000 0.050046
v 0.025000 -0.400000 0.050046
vn -1.0000 0.0000 0.0000
vn 0.0000 -1.0000 0.0000
vn 0.0000 0.0000 1.0000
vn 0.0000 1.0000 0.0000
vn 0.0000 0.0000 -1.0000
vn 1.0000 0.0000 0.0000
usemtl FrameMat
s off
f 109//19 110//19 111//19
f 112//19 113//19 114//19
f 115//20 116//20 117//20
f 118//20 119//20 120//20
f 121//21 122//21 123//21
f 124//21 125//21 126//21
f 127//22 128//22 129//22
f 130//22 131//22 132//22
f 133//23 134//23 135//23
f 136//23 137//23 138//23
f 139//24 140//24 141//24
f 142//24 143//24 144//24
